<mxfile host="65bd71144e">
    <diagram id="e41sj6XoXZBibDI9JoMo" name="Page-1">
        <mxGraphModel dx="1055" dy="643" grid="1" gridSize="10" guides="1" tooltips="1" connect="1" arrows="1" fold="1" page="1" pageScale="1" pageWidth="850" pageHeight="1100" math="0" shadow="0">
            <root>
                <mxCell id="0"/>
                <mxCell id="1" parent="0"/>
                <mxCell id="5" style="edgeStyle=none;html=1;exitX=1;exitY=0.5;exitDx=0;exitDy=0;entryX=0;entryY=0.5;entryDx=0;entryDy=0;" edge="1" parent="1" source="2" target="3">
                    <mxGeometry relative="1" as="geometry"/>
                </mxCell>
                <mxCell id="2" value="&lt;font style=&quot;font-size: 18px;&quot;&gt;&lt;b style=&quot;&quot;&gt;PDFで出力&lt;/b&gt;&lt;/font&gt;" style="rounded=1;whiteSpace=wrap;html=1;strokeColor=none;fillColor=light-dark(#97daf3, #EDEDED);" vertex="1" parent="1">
                    <mxGeometry x="120" y="265" width="120" height="60" as="geometry"/>
                </mxCell>
                <mxCell id="6" style="edgeStyle=none;html=1;exitX=1;exitY=0.5;exitDx=0;exitDy=0;entryX=0;entryY=0.5;entryDx=0;entryDy=0;" edge="1" parent="1" source="3" target="4">
                    <mxGeometry relative="1" as="geometry"/>
                </mxCell>
                <mxCell id="3" value="&lt;span style=&quot;font-size: 18px;&quot;&gt;&lt;b&gt;pdf2pptx&lt;br&gt;&lt;/b&gt;&lt;/span&gt;&lt;div style=&quot;text-align: left;&quot;&gt;&lt;br&gt;&lt;/div&gt;&lt;div style=&quot;text-align: left;&quot;&gt;1.&amp;nbsp;PDFを画像に変換&lt;/div&gt;&lt;div style=&quot;text-align: left;&quot;&gt;2. PPTXを作成&lt;/div&gt;&lt;div style=&quot;text-align: left;&quot;&gt;3.&amp;nbsp;&lt;span style=&quot;background-color: transparent; text-align: center;&quot;&gt;画像をスライドに追加&lt;/span&gt;&lt;/div&gt;&lt;div style=&quot;text-align: left;&quot;&gt;&lt;span style=&quot;color: rgb(63, 63, 63); background-color: transparent;&quot;&gt;4. PPTXの完成&lt;/span&gt;&lt;/div&gt;" style="rounded=1;whiteSpace=wrap;html=1;strokeColor=none;fillColor=light-dark(#97daf3, #EDEDED);" vertex="1" parent="1">
                    <mxGeometry x="280" y="210" width="160" height="170" as="geometry"/>
                </mxCell>
                <mxCell id="4" value="&lt;font style=&quot;font-size: 18px;&quot;&gt;&lt;b style=&quot;&quot;&gt;PPXを出力&lt;/b&gt;&lt;/font&gt;" style="rounded=1;whiteSpace=wrap;html=1;strokeColor=none;fillColor=light-dark(#97daf3, #EDEDED);" vertex="1" parent="1">
                    <mxGeometry x="480" y="265" width="120" height="60" as="geometry"/>
                </mxCell>
            </root>
        </mxGraphModel>
    </diagram>
</mxfile>